<svg width="116" height="25" viewBox="0 0 116 25" fill="none" xmlns="http://www.w3.org/2000/svg">
<path fill-rule="evenodd" clip-rule="evenodd" d="M83.2443 17.6644C83.2443 17.7917 83.3464 17.8917 83.4732 17.8917H86.8978C87.0246 17.8917 87.1258 17.7917 87.1258 17.6644L87.0492 11.3948L87.1258 5.09795C87.1258 4.9716 87.0246 4.8707 86.8978 4.8707H83.4732C83.3464 4.8707 83.2443 4.9716 83.2443 5.09795L83.3209 11.3948L83.2443 17.6644ZM83.2443 3.37806C83.2443 3.50442 83.3464 3.60532 83.4732 3.60532H86.8723C86.999 3.60532 87.1003 3.50442 87.1003 3.37806V0.420062C87.1003 0.293706 86.999 0.191895 86.8723 0.191895H83.4732C83.3464 0.191895 83.2443 0.293706 83.2443 0.420062V3.37806ZM24.3187 7.34818C23.1021 7.34818 21.7824 8.28358 21.351 10.1298L21.4523 17.6648C21.4523 17.7912 21.351 17.8921 21.2233 17.8921H17.8999C17.7741 17.8921 17.6719 17.7912 17.6719 17.6648L17.7741 9.01717L17.6719 0.420426C17.6719 0.293161 17.7741 0.192258 17.8999 0.192258H21.2233C21.351 0.192258 21.4523 0.293161 21.4523 0.420426L21.3757 6.31097C22.2886 5.14831 23.6092 4.56653 25.3338 4.56653C28.2769 4.56653 30.0781 6.31097 30.0015 10.1298V12.9106L30.0781 17.6648C30.0781 17.7912 29.976 17.8921 29.8492 17.8921H26.4246C26.2978 17.8921 26.1957 17.7912 26.1957 17.6648L26.2723 12.9615L26.2467 9.6744C26.2212 8.10631 25.3594 7.34818 24.3187 7.34818ZM10.6465 18.1953C6.84152 18.1953 4.40551 16.6536 4.27874 13.7447C4.27874 13.6192 4.37998 13.5174 4.50675 13.5174H7.75445C7.88122 13.5174 7.98245 13.6192 7.98245 13.7447C8.0846 15.2119 9.04861 15.8446 10.8234 15.8446C12.32 15.8446 13.1326 15.2619 13.1326 14.251C13.1326 13.2537 11.7477 13.0468 10.0927 12.7995C7.63567 12.4325 4.58336 11.9765 4.58336 8.71318C4.58336 6.0079 6.76582 4.56708 10.2908 4.56708C13.7163 4.56708 16.0246 5.93245 16.2527 8.66319C16.2782 8.78863 16.176 8.89136 16.0493 8.89136H12.9557C12.828 8.89136 12.7268 8.78863 12.7012 8.66319C12.4988 7.55053 11.7874 6.86784 10.2406 6.86784C8.99753 6.86784 8.21137 7.32236 8.21137 8.43593C8.21137 9.42916 9.58484 9.61801 11.2308 9.84432C13.6913 10.1826 16.7606 10.6047 16.7606 13.9229C16.7606 16.6536 14.1723 18.1953 10.6465 18.1953ZM40.3252 11.4195C40.3252 14.4029 39.4378 15.6928 37.56 15.6928C35.6584 15.6928 34.719 14.3784 34.719 11.4449C34.719 8.51238 35.6074 7.09519 37.5354 7.07065C39.4114 7.07065 40.3252 8.48602 40.3252 11.4195ZM30.8375 11.4195C30.8375 15.5656 33.2981 18.2209 37.56 18.2209C41.8219 18.2209 44.2323 15.4892 44.2323 11.3431C44.2323 7.1961 41.8219 4.54081 37.56 4.54081C33.2981 4.54081 30.8375 7.27246 30.8375 11.4195ZM51.5369 7.04456C50.0147 7.04456 49.1018 7.95541 48.7972 9.75076H54.1498C53.9975 8.35903 53.2113 7.04456 51.5369 7.04456ZM57.6511 13.4933C57.7778 13.4933 57.88 13.5932 57.8535 13.7205C57.5243 16.0967 55.2415 18.2211 51.588 18.2211C47.2239 18.2211 44.8645 15.3631 44.8645 11.4188C44.8645 7.27273 47.3516 4.54108 51.5123 4.54108C55.7987 4.54108 58.1837 7.37363 58.2603 11.9252C58.2603 12.0515 58.1581 12.1524 58.0314 12.1524H48.6959C48.8482 14.605 49.8122 15.6931 51.6381 15.6931C52.9067 15.6931 53.8197 15.1113 54.1754 13.7205C54.2009 13.5932 54.3277 13.4933 54.4544 13.4933H57.6511ZM68.5333 11.5456C68.5333 14.2008 67.5437 15.5917 65.6157 15.5917C63.789 15.5917 62.8003 14.049 62.825 11.2928C62.8505 8.58756 63.84 7.19673 65.6914 7.19673C67.5437 7.19673 68.5333 8.66301 68.5333 11.5456ZM62.9517 16.5525C63.84 17.5888 65.1077 18.1451 66.681 18.1451C70.2324 18.1451 72.4148 15.1117 72.4148 11.3428C72.4148 7.55035 70.4604 4.6178 66.7567 4.6178C65.1077 4.6178 63.8145 5.27503 62.9007 6.38678L62.9773 5.09777C62.9773 4.97142 62.876 4.87051 62.7493 4.87051H59.3492C59.2225 4.87051 59.1212 4.97142 59.1212 5.09777L59.1969 12.6082L59.1212 21.9631C59.1212 22.0894 59.2225 22.1913 59.3492 22.1913H62.7739C62.9007 22.1913 63.0028 22.0894 63.0028 21.9631L62.9517 16.5525ZM73.5291 17.8917C73.4024 17.8917 73.3011 17.7917 73.3011 17.6644L73.4024 11.3685L73.3011 5.09795C73.3011 4.9716 73.4024 4.8707 73.5291 4.8707H76.8772C77.0049 4.8707 77.1052 4.9716 77.1052 5.09795L77.0049 7.07056C78.019 5.52702 79.7701 4.76797 81.6717 4.76797C81.875 4.76797 82.0793 4.79434 82.2563 4.81888C82.383 4.84433 82.4843 4.9716 82.4843 5.09795V7.44963C82.4843 7.57507 82.383 7.65143 82.2563 7.65143C82.103 7.62598 81.9261 7.62598 81.7747 7.62598C79.0843 7.62598 77.0815 9.11861 77.1052 12.1021V17.6644C77.1052 17.7917 77.0049 17.8917 76.8772 17.8917H73.5291ZM99.2509 17.6644C99.2509 17.7917 99.1497 17.8917 99.0229 17.8917H88.4435C88.3167 17.8917 88.2155 17.7917 88.2155 17.6644V15.44C88.2155 15.3128 88.2666 15.1364 88.3678 15.0346L94.2284 7.55053H88.9761C88.8493 7.55053 88.7481 7.44963 88.7481 7.32236V5.09795C88.7481 4.9716 88.8493 4.8707 88.9761 4.8707H98.6417C98.7685 4.8707 98.8706 4.9716 98.8706 5.09795V7.37418C98.8706 7.49962 98.8195 7.67779 98.7183 7.77779L92.782 15.2119H99.0229C99.1497 15.2119 99.2509 15.3128 99.2509 15.44V17.6644ZM103.385 9.75076C103.689 7.95541 104.603 7.04456 106.125 7.04456C107.799 7.04456 108.586 8.35903 108.738 9.75076H103.385ZM112.442 13.7205C112.467 13.5932 112.366 13.4933 112.239 13.4933H109.042C108.915 13.4933 108.788 13.5932 108.763 13.7205C108.408 15.1113 107.495 15.6931 106.226 15.6931C104.399 15.6931 103.435 14.605 103.283 12.1524H112.619C112.746 12.1524 112.847 12.0515 112.847 11.9252C112.772 7.37363 110.387 4.54108 106.099 4.54108C101.939 4.54108 99.4535 7.27273 99.4535 11.4188C99.4535 15.3631 101.812 18.2211 106.176 18.2211C109.829 18.2211 112.111 16.0967 112.442 13.7205ZM56.0026 22.1919H0.742384C0.331975 22.1919 0 21.861 0 21.4519V5.01478H1.48477V20.7111H56.0026V22.1919ZM65.5288 22.1919H115.258C115.668 22.1919 116 21.861 116 21.4519V5.01478H114.515V20.7111H65.5288V22.1919Z" fill="black"/>
</svg>
