<svg width="76" height="38" viewBox="0 0 76 38" fill="none" xmlns="http://www.w3.org/2000/svg">
<mask id="path-1-inside-1_1_1474" fill="white">
<path fill-rule="evenodd" clip-rule="evenodd" d="M2 0C0.895431 0 0 0.895431 0 2V30C0 31.1046 0.895432 32 2 32H32.3431L38 37.6569L43.6569 32H74C75.1046 32 76 31.1046 76 30V2C76 0.895431 75.1046 0 74 0H2Z"/>
</mask>
<path fill-rule="evenodd" clip-rule="evenodd" d="M2 0C0.895431 0 0 0.895431 0 2V30C0 31.1046 0.895432 32 2 32H32.3431L38 37.6569L43.6569 32H74C75.1046 32 76 31.1046 76 30V2C76 0.895431 75.1046 0 74 0H2Z" fill="white"/>
<path d="M32.3431 32L33.0503 31.2929L32.7574 31H32.3431V32ZM38 37.6569L37.2929 38.364L38 39.0711L38.7071 38.364L38 37.6569ZM43.6569 32V31H43.2426L42.9497 31.2929L43.6569 32ZM1 2C1 1.44772 1.44772 1 2 1V-1C0.343146 -1 -1 0.343146 -1 2H1ZM1 30V2H-1V30H1ZM2 31C1.44772 31 1 30.5523 1 30H-1C-1 31.6569 0.343148 33 2 33V31ZM32.3431 31H2V33H32.3431V31ZM38.7071 36.9497L33.0503 31.2929L31.636 32.7071L37.2929 38.364L38.7071 36.9497ZM42.9497 31.2929L37.2929 36.9497L38.7071 38.364L44.364 32.7071L42.9497 31.2929ZM74 31H43.6569V33H74V31ZM75 30C75 30.5523 74.5523 31 74 31V33C75.6569 33 77 31.6569 77 30H75ZM75 2V30H77V2H75ZM74 1C74.5523 1 75 1.44772 75 2H77C77 0.343145 75.6569 -1 74 -1V1ZM2 1H74V-1H2V1Z" fill="#E0E0E0" mask="url(#path-1-inside-1_1_1474)"/>
</svg>
